<svg width="100" height="125" viewBox="0 0 100 125" fill="none" xmlns="http://www.w3.org/2000/svg">
<path d="M94.6429 0C97.355 0 99.5964 2.01538 99.9511 4.63021L100 5.35714V119.643C100 122.602 97.6015 125 94.6429 125C91.9307 125 89.6894 122.985 89.3346 120.37L89.2857 119.643V83.9286H73.2143C70.5022 83.9286 68.2608 81.9132 67.906 79.2984L67.8571 78.5714V26.7857C67.8571 11.9924 79.8495 0 94.6429 0ZM51.7857 0C54.4978 0 56.7392 2.01538 57.094 4.63021L57.1429 5.35714V33.9286C57.1429 47.8756 47.1496 59.4885 33.9329 61.9978L33.9286 119.643C33.9286 122.602 31.5301 125 28.5714 125C25.8593 125 23.6179 122.985 23.2632 120.37L23.2143 119.643L23.2171 61.9991C10.469 59.5822 0.718171 48.6961 0.037946 35.4139L0 33.9286V5.35714C0 2.39847 2.39847 0 5.35714 0C8.06926 0 10.3107 2.01538 10.6654 4.63021L10.7143 5.35714V33.9286C10.7143 41.9255 15.9709 48.6946 23.2173 50.9692L23.2143 5.35714C23.2143 2.39847 25.6128 0 28.5714 0C31.2835 0 33.5249 2.01538 33.8797 4.63021L33.9286 5.35714L33.9327 50.9669C40.773 48.8167 45.8387 42.6609 46.3805 35.249L46.4286 33.9286V5.35714C46.4286 2.39847 48.827 0 51.7857 0ZM89.2857 73.2143V11.6288C83.4108 13.7053 79.1037 19.1007 78.6173 25.5622L78.5714 26.7857V73.2143H89.2857V11.6288V73.2143Z" fill="#FE951E"/>
</svg>
