<svg width="128" height="128" viewBox="0 0 128 128" fill="none" xmlns="http://www.w3.org/2000/svg">
<path d="M108.643 1.5C111.355 1.5 113.596 3.51538 113.951 6.13021L114 6.85714V121.143C114 124.102 111.602 126.5 108.643 126.5C105.931 126.5 103.689 124.485 103.335 121.87L103.286 121.143V85.4286H87.2143C84.5022 85.4286 82.2608 83.4132 81.906 80.7984L81.8571 80.0714V28.2857C81.8571 13.4924 93.8495 1.5 108.643 1.5ZM65.7857 1.5C68.4978 1.5 70.7392 3.51538 71.0939 6.13021L71.1429 6.85714V35.4286C71.1429 49.3756 61.1496 60.9885 47.9329 63.4978L47.9286 121.143C47.9286 124.102 45.5301 126.5 42.5714 126.5C39.8593 126.5 37.6179 124.485 37.2632 121.87L37.2143 121.143L37.2171 63.4991C24.469 61.0822 14.7182 50.1961 14.0379 36.9139L14 35.4286V6.85714C14 3.89847 16.3985 1.5 19.3571 1.5C22.0692 1.5 24.3106 3.51538 24.6654 6.13021L24.7143 6.85714V35.4286C24.7143 43.4255 29.9709 50.1946 37.2173 52.4692L37.2143 6.85714C37.2143 3.89847 39.6128 1.5 42.5714 1.5C45.2835 1.5 47.5249 3.51538 47.8797 6.13021L47.9286 6.85714L47.9327 52.4669C54.773 50.3167 59.8387 44.1609 60.3805 36.749L60.4286 35.4286V6.85714C60.4286 3.89847 62.827 1.5 65.7857 1.5ZM103.286 74.7143V13.1288C97.4108 15.2053 93.1037 20.6007 92.6173 27.0622L92.5714 28.2857V74.7143H103.286V13.1288V74.7143Z" fill="#FE951E"/>
</svg>
